<svg width="1858" height="1175" viewBox="0 0 1858 1175" fill="none" xmlns="http://www.w3.org/2000/svg">
<g clip-path="url(#clip0_2021_53)">
<path d="M937.861 0C937.861 0 902.961 27.6992 902.961 78.1117C902.961 129.078 937.861 352.888 937.861 352.888C937.861 352.888 973.315 128.524 973.315 78.1117C973.315 27.6992 937.861 0 937.861 0Z" fill="#8B7249"/>
<path d="M937.861 630.434C937.861 630.434 915.148 614.368 915.148 585.561C915.148 556.2 937.861 427.676 937.861 427.676C937.861 427.676 961.128 556.2 961.128 585.561C961.128 614.368 937.861 630.434 937.861 630.434Z" fill="#8B7249"/>
<path d="M1264.15 390.559C1264.15 390.559 1241.43 361.751 1199.89 361.751C1158.34 361.751 974.977 390.559 974.977 390.559C974.977 390.559 1158.34 419.366 1199.89 419.366C1241.99 419.366 1264.15 390.559 1264.15 390.559Z" fill="#8B7249"/>
<path d="M613.797 390.004C613.797 390.004 635.955 361.197 677.503 361.197C718.496 361.197 901.305 390.004 901.305 390.004C901.305 390.004 719.05 418.812 677.503 418.812C635.955 418.812 613.797 390.004 613.797 390.004Z" fill="#8B7249"/>
<path d="M679.719 131.848C679.719 131.848 674.733 172.843 707.971 206.636C741.209 239.875 911.83 364.521 911.83 364.521C911.83 364.521 787.742 193.894 754.504 160.655C720.712 126.862 679.719 131.848 679.719 131.848Z" fill="#8B7249"/>
<path d="M1125.1 577.805C1125.1 577.805 1095.74 581.683 1073.03 558.97C1049.76 535.702 964.453 417.15 964.453 417.15C964.453 417.15 1083 502.463 1106.27 525.731C1128.98 548.444 1125.1 577.805 1125.1 577.805Z" fill="#8B7249"/>
<path d="M1199.33 129.078C1199.33 129.078 1157.79 124.092 1124 157.885C1090.2 191.678 964.453 363.967 964.453 363.967C964.453 363.967 1137.29 238.213 1171.08 204.42C1204.32 171.181 1199.33 129.078 1199.33 129.078Z" fill="#8B7249"/>
<path d="M755.052 573.927C755.052 573.927 750.621 545.12 773.333 522.407C796.046 499.693 912.378 416.596 912.378 416.596C912.378 416.596 829.284 532.932 806.571 555.646C783.859 578.359 755.052 573.927 755.052 573.927Z" fill="#8B7249"/>
<path d="M791.06 35.4551C791.06 35.4551 769.455 73.68 788.844 119.661C807.678 165.641 924.011 356.212 924.011 356.212C924.011 356.212 871.384 139.604 852.55 93.6234C833.161 47.0887 791.06 35.4551 791.06 35.4551Z" fill="#8B7249"/>
<path d="M1031.48 615.476C1031.48 615.476 1004.34 609.382 992.705 581.683C981.626 553.984 952.266 424.352 952.266 424.352C952.266 424.352 1023.73 536.81 1034.81 563.956C1046.44 592.209 1031.48 615.476 1031.48 615.476Z" fill="#8B7249"/>
<path d="M1260.27 255.941C1260.27 255.941 1225.93 236.551 1184.38 253.725C1142.83 270.898 972.211 375.047 972.211 375.047C972.211 375.047 1166.65 327.958 1208.2 310.785C1249.75 294.165 1260.27 255.941 1260.27 255.941Z" fill="#8B7249"/>
<path d="M669.188 501.909C669.188 501.909 678.051 470.886 711.843 457.037C745.635 443.187 904.623 404.408 904.623 404.408C904.623 404.408 764.47 489.722 730.678 503.571C696.886 517.421 669.188 501.909 669.188 501.909Z" fill="#8B7249"/>
<path d="M612.133 255.387C612.133 255.387 622.658 293.612 664.76 311.339C706.861 328.513 904.073 376.709 904.073 376.709C904.073 376.709 730.681 270.898 688.58 253.725C647.033 235.443 612.133 255.387 612.133 255.387Z" fill="#8B7249"/>
<path d="M1209.31 502.464C1209.31 502.464 1181.06 518.529 1147.26 504.126C1112.92 489.722 972.211 403.854 972.211 403.854C972.211 403.854 1132.31 442.633 1166.65 456.483C1200.44 471.441 1209.31 502.464 1209.31 502.464Z" fill="#8B7249"/>
<path d="M1083.56 39.333C1083.56 39.333 1042.01 50.9667 1023.17 96.3934C1004.34 141.82 952.82 355.658 952.82 355.658C952.82 355.658 1067.49 167.857 1086.33 122.431C1104.61 77.0039 1083.56 39.333 1083.56 39.333Z" fill="#8B7249"/>
<path d="M844.798 615.476C844.798 615.476 829.287 591.655 840.92 564.51C851.999 537.365 924.015 424.906 924.015 424.906C924.015 424.906 895.209 554.538 884.129 582.237C872.496 609.382 844.798 615.476 844.798 615.476Z" fill="#8B7249"/>
<path d="M186.132 843.717H39.8855V745.108H186.132C208.845 745.108 221.586 757.85 221.586 780.563V808.262C221.586 830.976 208.845 843.717 186.132 843.717ZM0 967.256H39.8855V884.158H186.132C237.651 884.158 261.472 860.337 261.472 808.816V781.117C261.472 729.597 237.651 705.775 186.132 705.775H0V967.256Z" fill="#152D51"/>
<path d="M511.313 871.417H329.612V780.563C329.612 757.85 342.353 745.108 365.066 745.108H475.859C498.572 745.108 511.313 757.85 511.313 780.563V871.417ZM511.313 967.256H551.198V781.117C551.198 729.597 527.378 705.775 475.859 705.775H365.066C313.547 705.775 289.727 729.597 289.727 781.117V967.256H329.612V911.857H511.313V967.256Z" fill="#152D51"/>
<path d="M594.406 967.256H800.481V926.815H634.292V705.222H594.406V967.256Z" fill="#152D51"/>
<path d="M1120.67 967.256H1161.11V705.222H1117.35L1002.12 885.266L887.451 705.222H843.688V967.256H883.573V775.024L1002.12 960.608L1120.67 775.024V967.256Z" fill="#152D51"/>
<path d="M1243.65 705.222H1203.77V967.256H1243.65V705.222Z" fill="#152D51"/>
<path d="M1473.55 843.717H1327.3V745.108H1473.55C1496.26 745.108 1509 757.85 1509 780.563V808.262C1509 830.976 1496.26 843.717 1473.55 843.717ZM1481.3 967.256H1538.36L1455.27 884.158H1473.55C1525.07 884.158 1548.89 860.337 1548.89 808.816V781.117C1548.89 729.597 1525.07 705.775 1473.55 705.775H1287.41V967.81H1327.3V884.712H1398.21L1481.3 967.256Z" fill="#152D51"/>
<path d="M1813.68 871.417H1631.98V780.563C1631.98 757.85 1644.72 745.108 1667.43 745.108H1778.23C1800.94 745.108 1813.68 757.85 1813.68 780.563V871.417ZM1813.68 967.256H1853.57V781.117C1853.57 729.597 1829.74 705.775 1778.23 705.775H1667.43C1615.91 705.775 1592.09 729.597 1592.09 781.117V967.256H1631.98V911.857H1813.68V967.256Z" fill="#152D51"/>
<path d="M414.368 1166.69H369.497V1102.98H414.368C427.109 1102.98 434.865 1110.74 434.865 1122.93V1146.75C434.865 1158.93 427.109 1166.69 414.368 1166.69ZM361.188 1175H414.368C434.311 1175 443.174 1166.69 443.174 1146.75V1122.93C443.174 1103.54 434.865 1094.67 414.368 1094.67H369.497V1059.77H361.188V1175Z" fill="#808285"/>
<path d="M465.328 1094.67V1146.75C465.328 1166.14 473.638 1175 494.134 1175H518.509C538.452 1175 547.315 1166.69 547.315 1147.85V1094.67H539.006V1146.75C539.006 1158.93 531.25 1166.69 519.063 1166.69H494.688C481.947 1166.69 474.192 1158.93 474.192 1146.75V1094.67H465.328Z" fill="#808285"/>
<path d="M583.328 1175H635.955C652.02 1175 658.667 1168.35 658.667 1152.84C658.667 1137.33 652.02 1130.68 636.509 1130.68H599.393C591.084 1130.68 585.544 1125.14 585.544 1116.83C586.098 1107.97 591.084 1102.43 599.393 1102.43H652.02V1094.12H599.393C583.328 1094.12 577.234 1100.21 577.234 1115.72C577.234 1131.79 583.882 1138.44 599.947 1138.44H637.063C645.372 1138.44 650.912 1143.98 650.912 1152.29C650.912 1160.6 645.372 1166.14 637.063 1166.14H584.436V1175H583.328Z" fill="#808285"/>
<path d="M688.023 1175H696.333V1095.23H688.023V1175ZM688.577 1078.05H696.887V1069.74H688.577V1078.05Z" fill="#808285"/>
<path d="M799.373 1175H807.682V1122.93C807.682 1103.54 799.373 1094.67 778.876 1094.67H725.695V1174.45H734.005V1102.43H778.876C791.617 1102.43 799.373 1110.18 799.373 1122.37V1175Z" fill="#808285"/>
<path d="M912.932 1128.47H845.349V1120.71C845.349 1108.52 853.104 1100.77 865.845 1100.77H892.436C905.177 1100.77 912.932 1108.52 912.932 1120.71V1128.47ZM866.399 1092.46C845.902 1092.46 837.039 1100.77 837.039 1120.71V1146.75C837.039 1166.14 845.349 1175 865.845 1175H916.81V1166.69H865.845C853.104 1166.69 845.349 1158.93 845.349 1146.75V1136.77H921.242V1120.71C921.242 1101.32 912.378 1092.46 891.882 1092.46H866.399Z" fill="#808285"/>
<path d="M947.836 1175H1000.46C1016.53 1175 1023.18 1168.35 1023.18 1152.84C1023.18 1137.33 1016.53 1130.68 1001.02 1130.68H963.901C955.591 1130.68 950.052 1125.14 950.052 1116.83C950.606 1107.97 955.591 1102.43 963.901 1102.43H1016.53V1094.12H963.901C947.836 1094.12 941.742 1100.21 941.742 1115.72C941.742 1131.79 948.39 1138.44 964.455 1138.44H1001.57C1009.88 1138.44 1015.42 1143.98 1015.42 1152.29C1015.42 1160.6 1009.88 1166.14 1001.57 1166.14H948.944V1175H947.836Z" fill="#808285"/>
<path d="M1049.21 1175H1101.84C1117.9 1175 1124.55 1168.35 1124.55 1152.84C1124.55 1137.33 1117.9 1130.68 1101.84 1130.68H1064.72C1056.41 1130.68 1050.87 1125.14 1050.87 1116.83C1051.43 1107.97 1056.97 1102.43 1064.72 1102.43H1117.35V1094.12H1064.72C1048.66 1094.12 1042.56 1100.21 1042.56 1115.72C1042.56 1131.79 1049.21 1138.44 1065.28 1138.44H1102.39C1110.7 1138.44 1116.24 1143.98 1116.24 1152.29C1116.24 1160.6 1110.7 1166.14 1102.39 1166.14H1049.76V1175H1049.21Z" fill="#808285"/>
<path d="M1214.29 1094.67C1194.35 1094.67 1185.48 1102.98 1185.48 1122.93V1146.75C1185.48 1166.14 1193.79 1175 1214.29 1175H1267.47V1166.69H1214.29C1201.55 1166.69 1193.79 1158.93 1193.79 1146.75V1122.93C1193.79 1110.74 1201.55 1102.98 1214.29 1102.98H1267.47V1094.67H1214.29Z" fill="#808285"/>
<path d="M1297.94 1059.77H1289.63V1174.45H1297.94V1059.77Z" fill="#808285"/>
<path d="M1327.3 1094.67V1146.75C1327.3 1166.14 1335.61 1175 1356.11 1175H1380.49C1400.43 1175 1409.29 1166.69 1409.29 1147.85V1094.67H1400.98V1146.75C1400.98 1158.93 1393.23 1166.69 1381.04 1166.69H1356.11C1343.37 1166.69 1335.61 1158.93 1335.61 1146.75V1094.67H1327.3Z" fill="#808285"/>
<path d="M1482.42 1166.69H1437.54V1102.98H1482.42C1495.16 1102.98 1502.91 1110.74 1502.91 1122.93V1146.75C1502.36 1158.93 1494.6 1166.69 1482.42 1166.69ZM1429.23 1175H1482.42C1502.36 1175 1511.22 1166.69 1511.22 1146.75V1122.93C1511.22 1103.54 1502.91 1094.67 1482.42 1094.67H1437.54V1059.77H1429.23V1175Z" fill="#808285"/>
<line x1="6" y1="1017.5" x2="1864" y2="1017.5" stroke="#808285" stroke-width="7"/>
</g>
<defs>
<clipPath id="clip0_2021_53">
<rect width="1858" height="1175" fill="white"/>
</clipPath>
</defs>
</svg>
